<svg width="59" height="77" viewBox="0 0 59 77" fill="none" xmlns="http://www.w3.org/2000/svg">
<path d="M37.9996 15.0001H28.4122L28.706 14.7064L31.2134 12.1989C32.2262 12.7089 33.3421 12.9809 34.4759 12.9939C35.6172 12.9969 36.7371 12.6846 37.7121 12.0914C40.6771 10.2964 42.2658 6.1415 41.9621 0.976566C41.9478 0.731926 41.8441 0.501048 41.6709 0.327767C41.4976 0.154486 41.2667 0.0508652 41.0221 0.0365785C35.8571 -0.265917 31.7022 1.32156 29.9072 4.28652C28.7372 6.21775 28.7072 8.55021 29.7985 10.7864L27.9997 12.5852L26.4735 11.0589C27.2235 9.4027 27.1698 7.68398 26.2998 6.24899C24.941 4.00028 21.8261 2.80154 17.9661 3.02779C17.7219 3.04234 17.4915 3.14591 17.3185 3.31891C17.1455 3.4919 17.0419 3.72231 17.0274 3.96653C16.7999 7.82522 17.9999 10.9402 20.2498 12.3002C21.0026 12.7598 21.8679 13.0021 22.7498 13.0002C23.5499 12.9922 24.3392 12.8137 25.0648 12.4764L26.5848 14.0001L25.5848 15.0001H19.9998C19.7346 15.0001 19.4803 15.1055 19.2927 15.293C19.1052 15.4805 18.9999 15.7349 18.9999 16.0001C18.9999 16.2653 19.1052 16.5197 19.2927 16.7072C19.4803 16.8947 19.7346 17.0001 19.9998 17.0001H21.1986L22.8498 24.4338C22.9466 24.879 23.1933 25.2775 23.5487 25.5626C23.9041 25.8477 24.3467 26.0021 24.8023 26H33.1984C33.654 26.0021 34.0966 25.8477 34.452 25.5626C34.8074 25.2775 35.0541 24.879 35.1509 24.4338L36.8021 17.0001H37.9996C38.2648 17.0001 38.5192 16.8947 38.7067 16.7072C38.8942 16.5197 38.9996 16.2653 38.9996 16.0001C38.9996 15.7349 38.8942 15.4805 38.7067 15.293C38.5192 15.1055 38.2648 15.0001 37.9996 15.0001ZM31.6247 5.32276C32.9322 3.16529 36.0296 1.9478 39.9996 2.00155C40.0508 5.97775 38.8358 9.07396 36.6784 10.3764C35.2396 11.2514 33.5034 11.1939 31.7684 10.2289C30.8022 8.50022 30.7497 6.76149 31.6247 5.32276ZM24.5135 10.5139C23.3636 11.1302 22.2248 11.1589 21.2848 10.5889C19.8473 9.7177 19.0186 7.66398 18.9999 5.00026C21.6636 5.01901 23.7185 5.84775 24.5885 7.28523C25.1585 8.22522 25.1248 9.36395 24.5135 10.5139ZM33.1984 24H24.8023L23.2498 17.0001H34.7496L33.1984 24Z" fill="white"/>
<path d="M0.37 69.51C0.37 68.83 0.526667 68.22 0.84 67.68C1.16 67.14 1.59 66.72 2.13 66.42C2.67667 66.1133 3.27333 65.96 3.92 65.96C4.66 65.96 5.31667 66.1433 5.89 66.51C6.47 66.87 6.89 67.3833 7.15 68.05H5.78C5.6 67.6833 5.35 67.41 5.03 67.23C4.71 67.05 4.34 66.96 3.92 66.96C3.46 66.96 3.05 67.0633 2.69 67.27C2.33 67.4767 2.04667 67.7733 1.84 68.16C1.64 68.5467 1.54 68.9967 1.54 69.51C1.54 70.0233 1.64 70.4733 1.84 70.86C2.04667 71.2467 2.33 71.5467 2.69 71.76C3.05 71.9667 3.46 72.07 3.92 72.07C4.34 72.07 4.71 71.98 5.03 71.8C5.35 71.62 5.6 71.3467 5.78 70.98H7.15C6.89 71.6467 6.47 72.16 5.89 72.52C5.31667 72.88 4.66 73.06 3.92 73.06C3.26667 73.06 2.67 72.91 2.13 72.61C1.59 72.3033 1.16 71.88 0.84 71.34C0.526667 70.8 0.37 70.19 0.37 69.51ZM9.06438 66.76C8.85771 66.76 8.68438 66.69 8.54438 66.55C8.40438 66.41 8.33438 66.2367 8.33438 66.03C8.33438 65.8233 8.40438 65.65 8.54438 65.51C8.68438 65.37 8.85771 65.3 9.06438 65.3C9.26438 65.3 9.43438 65.37 9.57438 65.51C9.71438 65.65 9.78438 65.8233 9.78438 66.03C9.78438 66.2367 9.71438 66.41 9.57438 66.55C9.43438 66.69 9.26438 66.76 9.06438 66.76ZM9.62438 67.49V73H8.48438V67.49H9.62438ZM12.2611 68.29C12.4278 68.01 12.6478 67.7933 12.9211 67.64C13.2011 67.48 13.5311 67.4 13.9111 67.4V68.58H13.6211C13.1744 68.58 12.8344 68.6933 12.6011 68.92C12.3744 69.1467 12.2611 69.54 12.2611 70.1V73H11.1211V67.49H12.2611V68.29ZM14.579 70.22C14.579 69.6667 14.6923 69.1767 14.919 68.75C15.1523 68.3233 15.4657 67.9933 15.859 67.76C16.259 67.52 16.699 67.4 17.179 67.4C17.6123 67.4 17.989 67.4867 18.309 67.66C18.6357 67.8267 18.8957 68.0367 19.089 68.29V67.49H20.239V73H19.089V72.18C18.8957 72.44 18.6323 72.6567 18.299 72.83C17.9657 73.0033 17.5857 73.09 17.159 73.09C16.6857 73.09 16.2523 72.97 15.859 72.73C15.4657 72.4833 15.1523 72.1433 14.919 71.71C14.6923 71.27 14.579 70.7733 14.579 70.22ZM19.089 70.24C19.089 69.86 19.009 69.53 18.849 69.25C18.6957 68.97 18.4923 68.7567 18.239 68.61C17.9857 68.4633 17.7123 68.39 17.419 68.39C17.1257 68.39 16.8523 68.4633 16.599 68.61C16.3457 68.75 16.139 68.96 15.979 69.24C15.8257 69.5133 15.749 69.84 15.749 70.22C15.749 70.6 15.8257 70.9333 15.979 71.22C16.139 71.5067 16.3457 71.7267 16.599 71.88C16.859 72.0267 17.1323 72.1 17.419 72.1C17.7123 72.1 17.9857 72.0267 18.239 71.88C18.4923 71.7333 18.6957 71.52 18.849 71.24C19.009 70.9533 19.089 70.62 19.089 70.24ZM28.4063 67.4C28.8397 67.4 29.2263 67.49 29.5663 67.67C29.913 67.85 30.183 68.1167 30.3763 68.47C30.5763 68.8233 30.6763 69.25 30.6763 69.75V73H29.5463V69.92C29.5463 69.4267 29.423 69.05 29.1763 68.79C28.9297 68.5233 28.593 68.39 28.1663 68.39C27.7397 68.39 27.3997 68.5233 27.1463 68.79C26.8997 69.05 26.7763 69.4267 26.7763 69.92V73H25.6463V69.92C25.6463 69.4267 25.523 69.05 25.2763 68.79C25.0297 68.5233 24.693 68.39 24.2663 68.39C23.8397 68.39 23.4997 68.5233 23.2463 68.79C22.9997 69.05 22.8763 69.4267 22.8763 69.92V73H21.7363V67.49H22.8763V68.12C23.063 67.8933 23.2997 67.7167 23.5863 67.59C23.873 67.4633 24.1797 67.4 24.5063 67.4C24.9463 67.4 25.3397 67.4933 25.6863 67.68C26.033 67.8667 26.2997 68.1367 26.4863 68.49C26.653 68.1567 26.913 67.8933 27.2663 67.7C27.6197 67.5 27.9997 67.4 28.4063 67.4ZM32.707 66.76C32.5003 66.76 32.327 66.69 32.187 66.55C32.047 66.41 31.977 66.2367 31.977 66.03C31.977 65.8233 32.047 65.65 32.187 65.51C32.327 65.37 32.5003 65.3 32.707 65.3C32.907 65.3 33.077 65.37 33.217 65.51C33.357 65.65 33.427 65.8233 33.427 66.03C33.427 66.2367 33.357 66.41 33.217 66.55C33.077 66.69 32.907 66.76 32.707 66.76ZM33.267 67.49V73H32.127V67.49H33.267ZM34.3837 70.24C34.3837 69.6733 34.497 69.1767 34.7237 68.75C34.957 68.3167 35.277 67.9833 35.6837 67.75C36.0903 67.5167 36.557 67.4 37.0837 67.4C37.7503 67.4 38.3003 67.56 38.7337 67.88C39.1737 68.1933 39.4703 68.6433 39.6237 69.23H38.3937C38.2937 68.9567 38.1337 68.7433 37.9137 68.59C37.6937 68.4367 37.417 68.36 37.0837 68.36C36.617 68.36 36.2437 68.5267 35.9637 68.86C35.6903 69.1867 35.5537 69.6467 35.5537 70.24C35.5537 70.8333 35.6903 71.2967 35.9637 71.63C36.2437 71.9633 36.617 72.13 37.0837 72.13C37.7437 72.13 38.1803 71.84 38.3937 71.26H39.6237C39.4637 71.82 39.1637 72.2667 38.7237 72.6C38.2837 72.9267 37.737 73.09 37.0837 73.09C36.557 73.09 36.0903 72.9733 35.6837 72.74C35.277 72.5 34.957 72.1667 34.7237 71.74C34.497 71.3067 34.3837 70.8067 34.3837 70.24ZM48.2174 68.12C48.2174 68.4733 48.1341 68.8067 47.9674 69.12C47.8008 69.4333 47.5341 69.69 47.1674 69.89C46.8008 70.0833 46.3308 70.18 45.7574 70.18H44.4974V73H43.3574V66.05H45.7574C46.2908 66.05 46.7408 66.1433 47.1074 66.33C47.4808 66.51 47.7574 66.7567 47.9374 67.07C48.1241 67.3833 48.2174 67.7333 48.2174 68.12ZM45.7574 69.25C46.1908 69.25 46.5141 69.1533 46.7274 68.96C46.9408 68.76 47.0474 68.48 47.0474 68.12C47.0474 67.36 46.6174 66.98 45.7574 66.98H44.4974V69.25H45.7574ZM51.6947 73.09C51.1747 73.09 50.7047 72.9733 50.2847 72.74C49.8647 72.5 49.5347 72.1667 49.2947 71.74C49.0547 71.3067 48.9347 70.8067 48.9347 70.24C48.9347 69.68 49.058 69.1833 49.3047 68.75C49.5514 68.3167 49.888 67.9833 50.3147 67.75C50.7414 67.5167 51.218 67.4 51.7447 67.4C52.2714 67.4 52.748 67.5167 53.1747 67.75C53.6014 67.9833 53.938 68.3167 54.1847 68.75C54.4314 69.1833 54.5547 69.68 54.5547 70.24C54.5547 70.8 54.428 71.2967 54.1747 71.73C53.9214 72.1633 53.5747 72.5 53.1347 72.74C52.7014 72.9733 52.2214 73.09 51.6947 73.09ZM51.6947 72.1C51.988 72.1 52.2614 72.03 52.5147 71.89C52.7747 71.75 52.9847 71.54 53.1447 71.26C53.3047 70.98 53.3847 70.64 53.3847 70.24C53.3847 69.84 53.308 69.5033 53.1547 69.23C53.0014 68.95 52.798 68.74 52.5447 68.6C52.2914 68.46 52.018 68.39 51.7247 68.39C51.4314 68.39 51.158 68.46 50.9047 68.6C50.658 68.74 50.4614 68.95 50.3147 69.23C50.168 69.5033 50.0947 69.84 50.0947 70.24C50.0947 70.8333 50.2447 71.2933 50.5447 71.62C50.8514 71.94 51.2347 72.1 51.6947 72.1ZM57.0116 68.42V71.47C57.0116 71.6767 57.0583 71.8267 57.1516 71.92C57.2516 72.0067 57.4183 72.05 57.6516 72.05H58.3516V73H57.4516C56.9383 73 56.545 72.88 56.2716 72.64C55.9983 72.4 55.8616 72.01 55.8616 71.47V68.42H55.2116V67.49H55.8616V66.12H57.0116V67.49H58.3516V68.42H57.0116Z" fill="white" fill-opacity="0.6"/>
<path d="M26.732 49.144C26.732 49.568 26.632 49.968 26.432 50.344C26.232 50.72 25.912 51.028 25.472 51.268C25.032 51.5 24.468 51.616 23.78 51.616H22.268V55H20.9V46.66H23.78C24.42 46.66 24.96 46.772 25.4 46.996C25.848 47.212 26.18 47.508 26.396 47.884C26.62 48.26 26.732 48.68 26.732 49.144ZM23.78 50.5C24.3 50.5 24.688 50.384 24.944 50.152C25.2 49.912 25.328 49.576 25.328 49.144C25.328 48.232 24.812 47.776 23.78 47.776H22.268V50.5H23.78ZM30.9047 55.108C30.2807 55.108 29.7167 54.968 29.2127 54.688C28.7087 54.4 28.3127 54 28.0247 53.488C27.7367 52.968 27.5927 52.368 27.5927 51.688C27.5927 51.016 27.7407 50.42 28.0367 49.9C28.3327 49.38 28.7367 48.98 29.2487 48.7C29.7607 48.42 30.3327 48.28 30.9647 48.28C31.5967 48.28 32.1687 48.42 32.6807 48.7C33.1927 48.98 33.5967 49.38 33.8927 49.9C34.1887 50.42 34.3367 51.016 34.3367 51.688C34.3367 52.36 34.1847 52.956 33.8807 53.476C33.5767 53.996 33.1607 54.4 32.6327 54.688C32.1127 54.968 31.5367 55.108 30.9047 55.108ZM30.9047 53.92C31.2567 53.92 31.5847 53.836 31.8887 53.668C32.2007 53.5 32.4527 53.248 32.6447 52.912C32.8367 52.576 32.9327 52.168 32.9327 51.688C32.9327 51.208 32.8407 50.804 32.6567 50.476C32.4727 50.14 32.2287 49.888 31.9247 49.72C31.6207 49.552 31.2927 49.468 30.9407 49.468C30.5887 49.468 30.2607 49.552 29.9567 49.72C29.6607 49.888 29.4247 50.14 29.2487 50.476C29.0727 50.804 28.9847 51.208 28.9847 51.688C28.9847 52.4 29.1647 52.952 29.5247 53.344C29.8927 53.728 30.3527 53.92 30.9047 53.92ZM37.2851 49.504V53.164C37.2851 53.412 37.3411 53.592 37.4531 53.704C37.5731 53.808 37.7731 53.86 38.0531 53.86H38.8931V55H37.8131C37.1971 55 36.7251 54.856 36.3971 54.568C36.0691 54.28 35.9051 53.812 35.9051 53.164V49.504H35.1251V48.388H35.9051V46.744H37.2851V48.388H38.8931V49.504H37.2851Z" fill="white"/>
</svg>
